<?xml version="1.0" encoding="utf-8"?>
<!-- Generator: Adobe Illustrator 19.2.1, SVG Export Plug-In . SVG Version: 6.00 Build 0)  -->
<svg version="1.1" id="layer" xmlns="http://www.w3.org/2000/svg" xmlns:xlink="http://www.w3.org/1999/xlink" x="0px" y="0px"
	 viewBox="0 0 652 652" style="enable-background:new 0 0 652 652;" xml:space="preserve">
<style type="text/css">
	.st0{fill:#231B1C;}
	.st1{fill:none;stroke:#231B1C;stroke-width:0.5848;stroke-miterlimit:10;}
	.st2{fill:none;stroke:#CF0037;stroke-width:1.1515;stroke-miterlimit:10;}
	.st3{fill:#CF0037;}
	.st4{fill:none;stroke:#CF0037;stroke-width:0.7483;stroke-miterlimit:10;}
	.st5{fill:none;stroke:#CF0037;stroke-width:0.7483;}
	.st6{fill:none;stroke:#CF0037;stroke-width:1.1696;stroke-miterlimit:10;}
	.st7{fill:#FFFFFF;}
	.st8{fill:#231815;}
</style>
<g>
	<path class="st0" d="M135.3,279.6c1.7,0,3.4,0.3,4.9,0.3c2.8,0,4.6-0.3,6.3-0.3v0.8c-1.2,0-3.2,0.4-3.2,2.4v21.7
		c0,5.9,3.5,8.8,8,8.8c4.5,0,8.1-2.9,8.1-8.8v-21.7c0-2-2-2.3-3.2-2.4v-0.8c1.7,0,3.5,0.3,6.3,0.3c1.5,0,3.2-0.3,4.9-0.3v0.8
		c-2.3,0.2-2.6,0.4-2.6,2.8v20.2c0,8.6-5,12.6-13.5,12.6c-8.5,0-13.5-4-13.5-12.6v-20.2c0-2.4-0.3-2.6-2.6-2.8V279.6z"/>
	<path class="st1" d="M135.4,279.7c1.7,0,3.4,0.3,4.9,0.3c2.8,0,4.6-0.3,6.3-0.3v0.7c-1.2,0.1-3.2,0.4-3.2,2.4v21.7
		c0,5.9,3.5,8.8,8,8.8c4.5,0,8-2.9,8-8.8v-21.7c0-2-2-2.3-3.2-2.4v-0.7c1.7,0,3.5,0.3,6.3,0.3c1.5,0,3.2-0.3,4.9-0.3v0.7
		c-2.3,0.2-2.6,0.4-2.6,2.8v20.2c0,8.6-5,12.6-13.5,12.6c-8.4,0-13.4-4-13.4-12.6v-20.2c0-2.4-0.3-2.6-2.6-2.8V279.7z"/>
	<path class="st0" d="M170.4,286.3c0-1.4-0.6-1.8-2.5-2.1v-0.7c1.4,0,2.8,0.3,4.2,0.3c1.3,0,2.4-0.3,3.6-0.3l16.8,23h0.1v-17.9
		c0-3.3-0.8-4.1-3.5-4.5v-0.7c1.4,0,2.8,0.3,4.1,0.3c1.6,0,3.3-0.3,4.9-0.3v0.7c-1.9,0.3-2.5,0.7-2.5,2.1v29.1h-2.9L173.6,289h-0.1
		v21.3c0,3.3,0.8,4,3.5,4.5v0.7c-1.4,0-2.8-0.3-4.1-0.3c-1.6,0-3.3,0.3-4.9,0.3v-0.7c1.9-0.3,2.5-0.7,2.5-2.1V286.3z"/>
	<path class="st1" d="M170.4,286.4c0-1.4-0.6-1.8-2.5-2.1v-0.7c1.4,0,2.8,0.3,4.2,0.3c1.3,0,2.4-0.3,3.6-0.3l16.8,23h0.1v-17.8
		c0-3.3-0.8-4-3.5-4.5v-0.7c1.4,0,2.8,0.3,4.1,0.3c1.6,0,3.2-0.3,4.9-0.3v0.7c-1.9,0.3-2.5,0.7-2.5,2.1v29.1h-2.9L173.6,289h-0.1
		v21.3c0,3.3,0.8,4,3.5,4.5v0.7c-1.4,0-2.8-0.3-4.1-0.3c-1.6,0-3.2,0.3-4.9,0.3v-0.7c1.9-0.3,2.5-0.7,2.5-2.1V286.4z"/>
	<path class="st0" d="M201,314.8c1.9-0.3,2.5-0.7,2.5-2.1v-26.4c0-1.4-0.6-1.8-2.5-2.1v-0.7c1,0,3.1,0.3,4.9,0.3
		c1.9,0,3.9-0.3,4.9-0.3v0.7c-1.9,0.3-2.5,0.7-2.5,2.1v26.4c0,1.4,0.6,1.8,2.5,2.1v0.7c-1,0-3.1-0.3-4.9-0.3c-1.9,0-3.9,0.3-4.9,0.3
		V314.8z"/>
	<path class="st1" d="M201,314.8c1.9-0.3,2.5-0.7,2.5-2.1v-26.3c0-1.4-0.6-1.8-2.5-2.1v-0.7c1,0,3,0.3,4.9,0.3
		c1.9,0,3.9-0.3,4.9-0.3v0.7c-1.9,0.3-2.5,0.7-2.5,2.1v26.3c0,1.4,0.6,1.8,2.5,2.1v0.7c-1,0-3-0.3-4.9-0.3c-1.9,0-3.9,0.3-4.9,0.3
		V314.8z"/>
	<path class="st0" d="M209.2,283.6c2,0,4,0.3,6,0.3c1.4,0,2.8-0.3,4.3-0.3v0.7c-1.9,0.1-2.5,0.5-2.5,1.4c0,0.5,0.3,1.6,0.5,2.1
		l7.9,21.9h0.1l7.1-21.2c0.4-1.2,0.6-2.2,0.6-2.8c0-1-1.3-1.3-2.3-1.5v-0.7c1.5,0,3,0.3,4.5,0.3c1.2,0,2.5-0.3,3.7-0.3v0.7
		c-1.6,0.2-2.5,1.2-3,2.7l-9.7,28.6h-3.3l-10.9-29c-0.4-1.1-0.8-2-3.1-2.2V283.6z"/>
	<path class="st1" d="M209.3,283.6c2,0,4,0.3,6,0.3c1.4,0,2.8-0.3,4.3-0.3v0.7c-1.9,0.1-2.5,0.5-2.5,1.4c0,0.5,0.3,1.6,0.5,2.1
		l7.9,21.9h0.1l7-21.2c0.4-1.2,0.6-2.2,0.6-2.8c0-1-1.3-1.3-2.3-1.5v-0.7c1.5,0,3,0.3,4.5,0.3c1.2,0,2.5-0.3,3.7-0.3v0.7
		c-1.6,0.2-2.5,1.2-3,2.7l-9.6,28.5h-3.3l-10.8-28.9c-0.4-1.1-0.8-2-3.1-2.2V283.6z"/>
	<path class="st0" d="M240.7,286.7c0-1.4-0.6-1.8-2.5-2.1v-0.7h23.8c0,2.4,0.1,4.9,0.3,7.3h-1c-0.6-3.9-2.3-4.5-4.5-4.5h-11.3v10.5
		h7c1.8,0,2.8-0.1,3.1-2.8h1c-0.1,1.4-0.3,2.7-0.3,4.2c0,1.5,0.2,2.9,0.3,4.3h-1c-0.3-2.7-1.3-2.9-3.1-2.9h-7v12.4H256
		c4.2,0,5.9-0.8,6.8-5.3h0.9c-0.2,2.7-0.4,5.4-0.5,8.1h-25.1v-0.7c1.9-0.3,2.5-0.7,2.5-2.1V286.7z"/>
	<path class="st1" d="M240.7,286.7c0-1.4-0.6-1.8-2.5-2.1v-0.7h23.7c0,2.4,0.1,4.9,0.3,7.3h-1c-0.6-3.9-2.3-4.5-4.4-4.5h-11.2v10.5
		h7c1.8,0,2.8-0.1,3.1-2.8h1c-0.1,1.4-0.3,2.7-0.3,4.2c0,1.5,0.2,2.9,0.3,4.3h-1c-0.3-2.7-1.3-2.9-3.1-2.9h-7v12.4H256
		c4.1,0,5.9-0.8,6.8-5.3h0.9c-0.3,2.7-0.4,5.4-0.5,8.1h-25v-0.7c1.9-0.3,2.5-0.7,2.5-2.1V286.7z"/>
	<path class="st0" d="M267.9,286.7c0-1.4-0.6-1.8-2.5-2.1v-0.7h14.3c6.6,0,8.9,3.4,8.9,7.5c0,5-4.2,8-9,8.4l9.1,11.8
		c1.5,1.9,2.7,3.1,4.1,3.3v0.7c-0.9,0-1.7-0.3-2.6-0.3c-1.3,0-2.6,0.3-3.8,0.3c-0.5-0.2-1-0.9-5-6.5l-6.4-8.6c-0.6-0.8-1-1.2-1-1.4
		c0-0.3,0.5-0.5,0.9-0.5c5.1,0,8.8-2.1,8.8-6.4c0-4.7-4.2-5.4-8.4-5.4h-2.7v26c0,1.4,0.6,1.8,2.5,2.1v0.7c-1,0-3.1-0.3-4.9-0.3
		c-1.9,0-3.9,0.3-4.9,0.3v-0.7c1.9-0.3,2.5-0.7,2.5-2.1V286.7z"/>
	<path class="st1" d="M267.9,286.7c0-1.4-0.6-1.8-2.5-2.1v-0.7h14.3c6.5,0,8.8,3.4,8.8,7.5c0,5-4.2,7.9-8.9,8.3l9,11.8
		c1.5,1.9,2.7,3.1,4.1,3.3v0.7c-0.9,0-1.7-0.3-2.6-0.3c-1.3,0-2.6,0.3-3.8,0.3c-0.5-0.2-1-0.9-5-6.5l-6.4-8.5c-0.6-0.8-1-1.2-1-1.4
		c0-0.3,0.5-0.5,0.9-0.5c5.1,0,8.7-2.1,8.7-6.4c0-4.6-4.2-5.3-8.3-5.3h-2.7v26c0,1.4,0.6,1.8,2.5,2.1v0.7c-1,0-3.1-0.3-4.9-0.3
		c-1.9,0-3.9,0.3-4.9,0.3v-0.7c1.9-0.3,2.5-0.7,2.5-2.1V286.7z"/>
	<path class="st0" d="M295.2,306c1.2,4.7,4.8,7.2,9.7,7.2c3.6,0,7.7-1.9,7.7-6.3c0-3.9-2.4-4.7-5.8-5.4c-8.5-1.7-13.1-3.2-13.1-9.2
		c0-4.9,5.1-9.1,13.1-9.1c2.1,0,6.4,0.5,8.2,1.6c0,2.3,0.1,4.6,0.2,6.9h-1c-0.7-4.3-4.7-5.7-8.2-5.7c-5.3,0-8,2.5-8,5.6
		c0,3.6,1.9,4.1,8,5.3c6.2,1.2,10.9,2.5,10.9,9c0,5.5-4.1,10.1-13.3,10.1c-3.1,0-6.2-0.6-9-2.3c0-2.6-0.1-5.1-0.3-7.6H295.2z"/>
	<path class="st1" d="M295.3,306c1.2,4.7,4.8,7.2,9.7,7.2c3.6,0,7.7-1.9,7.7-6.3c0-3.9-2.4-4.7-5.8-5.4c-8.5-1.7-13-3.2-13-9.2
		c0-4.9,5.1-9.1,13-9.1c2.1,0,6.4,0.5,8.1,1.6c0,2.3,0.1,4.6,0.2,6.9h-1c-0.7-4.3-4.7-5.7-8.2-5.7c-5.3,0-8,2.5-8,5.6
		c0,3.5,1.9,4.1,8,5.3c6.2,1.2,10.8,2.5,10.8,9c0,5.5-4.1,10.1-13.3,10.1c-3.1,0-6.2-0.6-9-2.3c0-2.6-0.1-5.1-0.3-7.6H295.3z"/>
	<path class="st0" d="M318.5,314.8c1.9-0.3,2.5-0.7,2.5-2.1v-26.4c0-1.4-0.6-1.8-2.5-2.1v-0.7c1,0,3.1,0.3,4.9,0.3
		c1.9,0,3.9-0.3,4.9-0.3v0.7c-1.9,0.3-2.5,0.7-2.5,2.1v26.4c0,1.4,0.6,1.8,2.5,2.1v0.7c-1,0-3.1-0.3-4.9-0.3c-1.9,0-3.9,0.3-4.9,0.3
		V314.8z"/>
	<path class="st1" d="M318.5,314.8c1.9-0.3,2.5-0.7,2.5-2.1v-26.3c0-1.4-0.6-1.8-2.5-2.1v-0.7c1,0,3,0.3,4.9,0.3
		c1.9,0,3.9-0.3,4.9-0.3v0.7c-1.9,0.3-2.5,0.7-2.5,2.1v26.3c0,1.4,0.6,1.8,2.5,2.1v0.7c-1,0-3-0.3-4.9-0.3c-1.9,0-3.9,0.3-4.9,0.3
		V314.8z"/>
	<path class="st0" d="M341.6,286.7H337c-2.8,0-4.1,0.9-5,5.3h-1c0.3-2.7,0.6-5.4,0.8-8.1h24.4c0.1,2.7,0.4,5.4,0.8,8.1h-1
		c-0.9-4.4-2.3-5.3-5-5.3h-4.5v25.3c0,1.7,0.6,2.6,3.1,2.9v0.7c-1.9,0-4-0.3-5.5-0.3c-1.5,0-3.6,0.3-5.5,0.3v-0.7
		c2.5-0.3,3.1-1.2,3.1-2.9V286.7z"/>
	<path class="st1" d="M341.6,286.7H337c-2.8,0-4.1,0.9-5,5.3h-1c0.3-2.7,0.6-5.4,0.8-8.1h24.3c0.1,2.7,0.4,5.4,0.8,8.1h-1
		c-0.9-4.4-2.3-5.3-5-5.3h-4.5v25.2c0,1.7,0.6,2.6,3.1,2.8v0.7c-1.9,0-4-0.3-5.5-0.3c-1.5,0-3.6,0.3-5.5,0.3v-0.7
		c2.5-0.3,3.1-1.2,3.1-2.8V286.7z"/>
	<path class="st0" d="M360.5,286.8c-0.8-1.4-1.4-2.2-3.2-2.5v-0.7c1.8,0,3.5,0.3,5.2,0.3c1.7,0,3.4-0.3,5.1-0.3v0.7
		c-1.6,0.1-2.3,0.3-2.3,1.1c0,0.5,0.2,1,0.6,1.9l6.7,13.1l6.3-13.2c0.3-0.8,0.3-1.3,0.3-1.7c0-0.8-0.7-1.2-2.4-1.3v-0.7
		c1.3,0,3.3,0.3,4.8,0.3c1.2,0,2.4-0.3,3.9-0.3v0.7c-1.9,0.1-2.5,0.9-3.7,3.3l-7.7,15.5v8.8c0,1.7,0.6,2.6,3.1,2.9v0.7
		c-1.9,0-4.1-0.3-5.5-0.3c-1.5,0-3.6,0.3-5.5,0.3v-0.7c2.5-0.3,3.1-1.2,3.1-2.9v-8.8L360.5,286.8z"/>
	<path class="st1" d="M360.5,286.8c-0.8-1.4-1.4-2.2-3.2-2.5v-0.7c1.8,0,3.5,0.3,5.2,0.3c1.7,0,3.3-0.3,5.1-0.3v0.7
		c-1.6,0.1-2.3,0.3-2.3,1.1c0,0.5,0.1,1,0.6,1.9l6.7,13.1l6.3-13.2c0.3-0.8,0.3-1.3,0.3-1.7c0-0.8-0.7-1.2-2.4-1.3v-0.7
		c1.3,0,3.2,0.3,4.8,0.3c1.2,0,2.4-0.3,3.9-0.3v0.7c-1.9,0.1-2.5,0.9-3.7,3.3l-7.7,15.5v8.8c0,1.7,0.6,2.6,3.1,2.9v0.7
		c-1.9,0-4-0.3-5.5-0.3c-1.5,0-3.6,0.3-5.5,0.3v-0.7c2.5-0.3,3.1-1.2,3.1-2.9v-8.8L360.5,286.8z"/>
	<path class="st0" d="M399.2,314.7c2.2-0.3,2.8-0.8,2.8-2.3v-29.7c0-1.6-0.7-2-2.8-2.3v-0.7c1.2,0,3.4,0.3,5.6,0.3
		c2.1,0,4.4-0.3,5.6-0.3v0.7c-2.2,0.3-2.8,0.8-2.8,2.3v12.2h17.6v-12.2c0-1.6-0.7-2-2.8-2.3v-0.7c1.2,0,3.4,0.3,5.6,0.3
		c2.1,0,4.4-0.3,5.6-0.3v0.7c-2.2,0.3-2.8,0.8-2.8,2.3v29.7c0,1.6,0.7,2,2.8,2.3v0.8c-1.2,0-3.4-0.3-5.6-0.3c-2.1,0-4.4,0.3-5.6,0.3
		v-0.8c2.2-0.3,2.8-0.8,2.8-2.3v-14h-17.6v14c0,1.6,0.7,2,2.8,2.3v0.8c-1.2,0-3.5-0.3-5.6-0.3c-2.1,0-4.4,0.3-5.6,0.3V314.7z"/>
	<path class="st1" d="M399.2,314.7c2.2-0.3,2.8-0.8,2.8-2.3v-29.6c0-1.6-0.7-2-2.8-2.3v-0.8c1.2,0,3.4,0.3,5.5,0.3
		c2.1,0,4.4-0.3,5.6-0.3v0.8c-2.2,0.3-2.8,0.8-2.8,2.3v12.2H425v-12.2c0-1.6-0.7-2-2.8-2.3v-0.8c1.2,0,3.4,0.3,5.6,0.3
		c2.1,0,4.4-0.3,5.5-0.3v0.8c-2.2,0.3-2.8,0.8-2.8,2.3v29.6c0,1.6,0.7,2,2.8,2.3v0.8c-1.2,0-3.4-0.3-5.5-0.3c-2.1,0-4.4,0.3-5.6,0.3
		v-0.8c2.2-0.3,2.8-0.8,2.8-2.3v-14h-17.5v14c0,1.6,0.7,2,2.8,2.3v0.8c-1.2,0-3.5-0.3-5.6-0.3c-2.1,0-4.4,0.3-5.5,0.3V314.7z"/>
	<path class="st0" d="M435.1,299.6c0,8.9,5.5,16.3,15.4,16.3c9.8,0,16-8.3,16-16.8c0-7.2-4.3-16-15.3-16
		C443.6,283.1,435.1,290,435.1,299.6 M439.6,298.4c0-9.1,6.6-11.9,10.2-11.9c6.3,0,12.2,5.8,12.2,14.4c0,7.8-5.1,11.7-10.3,11.7
		C444.1,312.6,439.6,305.4,439.6,298.4"/>
	<path class="st1" d="M435.1,299.6c0,8.9,5.5,16.3,15.4,16.3c9.7,0,16-8.3,16-16.8c0-7.2-4.3-16-15.3-16
		C443.6,283.1,435.1,290,435.1,299.6z M439.6,298.4c0-9.1,6.6-11.9,10.2-11.9c6.2,0,12.1,5.8,12.1,14.4c0,7.8-5.1,11.7-10.3,11.7
		C444.1,312.6,439.6,305.3,439.6,298.4z"/>
	<path class="st0" d="M469.3,306c1.2,4.7,4.8,7.2,9.7,7.2c3.6,0,7.7-1.9,7.7-6.3c0-3.9-2.4-4.7-5.8-5.4c-8.5-1.7-13.1-3.2-13.1-9.2
		c0-4.9,5.1-9.1,13.1-9.1c2.1,0,6.4,0.5,8.2,1.6c0,2.3,0.1,4.6,0.2,6.9h-1c-0.7-4.3-4.7-5.7-8.2-5.7c-5.3,0-8,2.5-8,5.6
		c0,3.6,1.9,4.1,8,5.3c6.2,1.2,10.9,2.5,10.9,9c0,5.5-4.1,10.1-13.3,10.1c-3.1,0-6.2-0.6-9-2.3c0-2.6-0.1-5.1-0.3-7.6H469.3z"/>
	<path class="st1" d="M469.3,306c1.2,4.7,4.8,7.2,9.7,7.2c3.6,0,7.7-1.9,7.7-6.3c0-3.9-2.4-4.7-5.8-5.4c-8.5-1.7-13-3.2-13-9.2
		c0-4.9,5.1-9.1,13-9.1c2.1,0,6.4,0.5,8.1,1.6c0,2.3,0.1,4.6,0.2,6.9h-1c-0.7-4.3-4.7-5.7-8.2-5.7c-5.3,0-8,2.5-8,5.6
		c0,3.5,1.9,4.1,8,5.3c6.2,1.2,10.8,2.5,10.8,9c0,5.5-4.1,10.1-13.3,10.1c-3.1,0-6.2-0.6-9-2.3c0-2.6-0.1-5.1-0.3-7.6H469.3z"/>
	<path class="st0" d="M495.3,286.7c0-1.4-0.6-1.8-2.5-2.1v-0.7h14.5c6.5,0,9.7,3.7,9.7,9.2c0,6-4.7,9.9-11.3,9.9
		c-1.2,0-3.8-0.4-4.7-1.3c-0.1-0.1-0.3-0.2-0.3-0.5c0-0.3,0.2-0.4,0.7-0.4h3c4.6,0,8.2-2.6,8.2-7.2c0-6.3-4.4-7.3-11-7.3h-1.3v26.4
		c0,1.4,0.6,1.8,2.5,2.1v0.7c-1,0-3-0.3-4.9-0.3c-1.9,0-3.9,0.3-4.9,0.3v-0.7c1.9-0.3,2.5-0.7,2.5-2.1V286.7z"/>
	<path class="st1" d="M495.3,286.7c0-1.4-0.6-1.8-2.5-2.1v-0.7h14.4c6.5,0,9.7,3.7,9.7,9.2c0,6-4.7,9.9-11.3,9.9
		c-1.2,0-3.8-0.4-4.7-1.3c-0.1-0.1-0.3-0.2-0.3-0.5c0-0.3,0.2-0.4,0.7-0.4h3c4.6,0,8.2-2.6,8.2-7.2c0-6.3-4.4-7.2-11-7.2h-1.3v26.3
		c0,1.4,0.6,1.8,2.5,2.1v0.7c-1,0-3-0.3-4.9-0.3c-1.9,0-3.9,0.3-4.9,0.3v-0.7c1.9-0.3,2.5-0.7,2.5-2.1V286.7z"/>
	<path class="st0" d="M519.5,314.8c1.9-0.3,2.5-0.7,2.5-2.1v-26.4c0-1.4-0.6-1.8-2.5-2.1v-0.7c1,0,3.1,0.3,4.9,0.3
		c1.9,0,3.9-0.3,4.9-0.3v0.7c-1.9,0.3-2.5,0.7-2.5,2.1v26.4c0,1.4,0.6,1.8,2.5,2.1v0.7c-1,0-3.1-0.3-4.9-0.3c-1.9,0-3.9,0.3-4.9,0.3
		V314.8z"/>
	<path class="st1" d="M519.5,314.8c1.9-0.3,2.5-0.7,2.5-2.1v-26.3c0-1.4-0.6-1.8-2.5-2.1v-0.7c1,0,3,0.3,4.9,0.3
		c1.9,0,3.9-0.3,4.9-0.3v0.7c-1.9,0.3-2.5,0.7-2.5,2.1v26.3c0,1.4,0.6,1.8,2.5,2.1v0.7c-1,0-3-0.3-4.9-0.3c-1.9,0-3.9,0.3-4.9,0.3
		V314.8z"/>
	<path class="st0" d="M542.6,286.7H538c-2.8,0-4.1,0.9-5,5.3h-1c0.3-2.7,0.6-5.4,0.8-8.1h24.4c0.1,2.7,0.4,5.4,0.8,8.1h-1
		c-0.9-4.4-2.3-5.3-5-5.3h-4.5v25.3c0,1.7,0.6,2.6,3.1,2.9v0.7c-1.9,0-4-0.3-5.5-0.3c-1.5,0-3.6,0.3-5.5,0.3v-0.7
		c2.5-0.3,3.1-1.2,3.1-2.9V286.7z"/>
	<path class="st1" d="M542.6,286.7H538c-2.8,0-4.1,0.9-5,5.3h-1c0.3-2.7,0.6-5.4,0.8-8.1h24.3c0.1,2.7,0.4,5.4,0.8,8.1h-1
		c-0.9-4.4-2.3-5.3-5-5.3h-4.5v25.2c0,1.7,0.6,2.6,3.1,2.8v0.7c-1.9,0-4-0.3-5.5-0.3c-1.5,0-3.6,0.3-5.5,0.3v-0.7
		c2.5-0.3,3.1-1.2,3.1-2.8V286.7z"/>
	<path class="st0" d="M556.8,315.5c1.5,0,3-0.3,4.4-0.3c1.3,0,2.6,0.3,3.9,0.3v-0.7c-2.1,0-2.6-0.5-2.6-1.2c0-0.7,0.3-2,0.8-3.3
		l2.4-6.8h10.6l2,5.4c1,2.7,1.3,3.6,1.3,4.4c0,0.9-0.5,1.3-2.3,1.5v0.7c1.9,0,3.8-0.3,5.8-0.3c1.3,0,2.5,0.3,3.8,0.3v-0.7
		c-1.8-0.3-2-0.7-3.3-4l-8.3-21.8c-0.9-2.3-1.5-4.1-1.7-5.4c-0.8,0.1-1.7,0.3-2.6,0.3c-1.2,0-2.5-0.2-3.8-0.3v0.7
		c1.1,0.2,1.6,0.4,1.6,1.5c0,0.6-0.2,1.1-0.3,1.6l-8.8,24.1c-1,2.7-1.4,3.2-3.1,3.3V315.5z M566.6,301l4.4-12.3h0.1l4.4,12.3H566.6z
		"/>
	<path class="st1" d="M556.9,315.5c1.5,0,3-0.3,4.4-0.3c1.3,0,2.6,0.3,3.9,0.3v-0.7c-2.1,0-2.6-0.5-2.6-1.2c0-0.7,0.3-2,0.8-3.3
		l2.4-6.8h10.6l2,5.4c1,2.7,1.3,3.6,1.3,4.4c0,0.9-0.5,1.3-2.3,1.5v0.7c1.9,0,3.8-0.3,5.8-0.3c1.3,0,2.5,0.3,3.8,0.3v-0.7
		c-1.8-0.3-2-0.7-3.3-4l-8.3-21.7c-0.9-2.3-1.5-4-1.7-5.4c-0.8,0.1-1.7,0.3-2.6,0.3c-1.2,0-2.5-0.2-3.7-0.3v0.7
		c1.1,0.2,1.6,0.4,1.6,1.5c0,0.6-0.1,1.1-0.3,1.6l-8.8,24c-1,2.7-1.4,3.2-3.1,3.3V315.5z M566.6,301l4.4-12.2h0.1l4.4,12.2H566.6z"
		/>
	<path class="st0" d="M592.2,286.3c0-1.4-0.6-1.8-2.5-2.1v-0.7c1,0,3.1,0.3,4.9,0.3c1.9,0,3.9-0.3,5.6-0.3v0.7
		c-2.5,0.2-3.2,0.9-3.2,2.1v26.1h9.4c4.5,0,5.9-1.3,6.3-5.9h0.9c-0.2,2.9-0.3,5.8-0.4,8.6h-23.5v-0.7c1.9-0.3,2.5-0.7,2.5-2.1V286.3
		z"/>
	<path class="st1" d="M592.2,286.4c0-1.4-0.6-1.8-2.5-2.1v-0.7c1,0,3,0.3,4.9,0.3c1.9,0,3.9-0.3,5.5-0.3v0.7
		c-2.5,0.2-3.1,0.9-3.1,2.1v26h9.3c4.5,0,5.9-1.3,6.3-5.9h0.9c-0.2,2.9-0.3,5.8-0.4,8.6h-23.4v-0.7c1.9-0.3,2.5-0.7,2.5-2.1V286.4z"
		/>
	<path class="st2" d="M117.9,267.9H20.6v64.3c0,0,0.5,11.2,4.2,16c3.8,4.8,6.7,8.2,15,10.4C56.2,363.1,69,374,69,374 M117.4,268.4
		v64.3c0,0-0.5,11.2-4.2,16c-3.8,4.8-6.7,8.2-15,10.4C81.8,363.6,69,374,69,374 M69,374.4V267.6 M117.4,310.9H69"/>
	<path class="st3" d="M32.7,291.4h7.1c0,0-0.5-0.8-0.3-3c0.2-2.2,0.6-2.1,0.6-2.1l-4.5-5.1h-12"/>
	<path class="st3" d="M25.6,283.7c0.7,0,1.3-0.5,1.3-1.2c0-0.7-0.6-1.2-1.3-1.2c-0.7,0-1.3,0.5-1.3,1.2
		C24.2,283.2,24.8,283.7,25.6,283.7"/>
	<path class="st3" d="M56.2,291.2h-7.1c0,0,0.5-0.8,0.3-3c-0.2-2.2-0.6-2.1-0.6-2.1l4.5-5.1h12"/>
	<path class="st3" d="M51.7,338l-13.5-11.4c-0.8-0.6-1-2.2-2.1-0.8c-1.2,1.4-0.9,2.9-0.2,3.5l13.5,11.3c1.2,0.9,2.1,0.3,2.5-0.2
		C52.3,340.1,52.7,338.8,51.7,338"/>
	<path class="st3" d="M51.9,332.2c0.4-0.4,0.6-3.3-1.4-5L38,315.7c-0.7-0.6-1.8-4.1-3.2-2.7c-2.5,2.6-0.8,4.9-0.1,5.6l13.2,11.9
		c1.7,1.5,2.9,3.2,3.5,2.4L51.9,332.2z"/>
	<path class="st3" d="M39.3,337.1c0.9-0.6,1.9,1.1,2.2,1.8c0.2,0.8-3.3,3.1-4.3,3.4c-0.5,0.2-1.4,0.5-1.7-0.6
		C34.8,339.8,38.4,337.7,39.3,337.1"/>
	<path class="st3" d="M44.4,292.5c1.9,0,3.5-1.5,3.5-3.4c0-1.9-1.6-3.4-3.5-3.4c-1.9,0-3.5,1.5-3.5,3.4
		C40.9,291,42.5,292.5,44.4,292.5"/>
	<path class="st3" d="M52.6,321.7c1.1-1.6-0.6-5.3-1.7-6.3l-13.2-11.9c-1.1-1-2.7-0.9-3.7,0.2c-4.1-1.2-0.9,2.7,0.2,3.7l13.2,11.9
		C48.4,320.3,51.2,323.7,52.6,321.7"/>
	<path class="st3" d="M32.5,305.5c0,0-2.5-3.7-0.2-6.9c2.2-3.2,5.7-2.3,6-2.1c0.3,0.1,3.3,1.5,1.8,3.3c-1.5,1.8-1.2,0.6-2.8,0.9
		c-0.6,0.1-0.6,0.7-0.6,1.1c0,0.7,0.4,1.3,0.9,1.8"/>
	<path class="st3" d="M47.2,307.8l5-4.5c1.1-1,2.7-0.9,3.7,0.2c4.3-1.4,0.9,2.7-0.2,3.7l-4.5,4.1"/>
	<path class="st3" d="M57.4,305.1c0,0,2.4-3.6,0.2-6.8c-2.2-3.2-6-2.2-6-2.2s-3.3,1.5-1.8,3.3c1.5,1.8,1.5,0.8,2.6,0.9
		c0.6,0,0.6,0.6,0.7,1.1c0.1,0.7-0.3,1.3-0.8,1.8"/>
</g>
<polygon class="st3" points="42.6,314.8 45.9,317.9 46,311.1 42.5,307.9 "/>
<polygon class="st3" points="42.7,325.9 45.8,328.7 45.9,323 42.6,320 "/>
<polygon class="st3" points="42.7,335.1 45.7,337.6 45.8,333 42.7,330.5 "/>
<g>
	<path class="st3" d="M46,306.8l0.2-14.8c0-0.8-1.2-1.6-2-1.6c-0.8,0-1.8,0.8-1.8,1.5l0.1,11.8L46,306.8z"/>
	<path class="st3" d="M42.8,339.5l0.1,9.3c0,0.7,0.6,1.4,1.4,1.4c0.8,0,1.4-0.6,1.4-1.4l0.1-6.7L42.8,339.5z"/>
</g>
<line class="st4" x1="77.5" y1="280.4" x2="77.5" y2="302.6"/>
<line class="st5" x1="109.6" y1="280.1" x2="109.6" y2="303.1"/>
<g>
	<path class="st4" d="M77.5,302.4c0,0,1.6-2.7,4.3-2.8c2.7-0.2,4.6,1,5.9,1c1.3,0,5.9,0.3,5.9,0.3s3.7,0.1,5.8-0.3
		c2.1-0.3,1.7-1.3,4.5-1.3c3.4,0,5.5,3.5,5.5,3.5 M95.1,321.9H99V319H84.3v2.9h3.9"/>
</g>
<rect x="89" y="334.7" class="st3" width="5.6" height="1.9"/>
<path class="st4" d="M87.2,321.7v8.2L80,346.6 M95.9,321.8v8.2l7.2,16.8"/>
<path class="st3" d="M94.6,342.4H89v-1.9h5.6V342.4z M94.6,346.8H89v-1.9h5.6V346.8z M99.8,338.8l-16.4-0.2L81,344l2.1,7.4h17l2-7.1
	L99.8,338.8z"/>
<g>
	<path class="st3" d="M83.2,351.4c2,0,3.7-1.7,3.7-3.7c0-2.1-1.7-3.7-3.7-3.7c-2,0-3.7,1.7-3.7,3.7
		C79.5,349.7,81.1,351.4,83.2,351.4"/>
	<path class="st3" d="M99.9,351.4c2,0,3.7-1.7,3.7-3.7c0-2-1.7-3.7-3.7-3.7c-2,0-3.7,1.7-3.7,3.7C96.2,349.7,97.9,351.4,99.9,351.4"
		/>
</g>
<line class="st6" x1="131.6" y1="325.1" x2="620.6" y2="325.1"/>
<g>
	<path class="st3" d="M27.6,286c0.7,0,1.3-0.5,1.3-1.2c0-0.7-0.6-1.2-1.3-1.2c-0.7,0-1.3,0.5-1.3,1.2C26.3,285.4,26.9,286,27.6,286"
		/>
	<path class="st3" d="M29.7,288.1c0.7,0,1.3-0.5,1.3-1.2c0-0.7-0.6-1.2-1.3-1.2c-0.7,0-1.3,0.5-1.3,1.2
		C28.4,287.6,29,288.1,29.7,288.1"/>
	<path class="st3" d="M63.1,283.8c-0.7,0-1.3-0.5-1.3-1.2c0-0.7,0.6-1.2,1.3-1.2c0.7,0,1.3,0.5,1.3,1.2
		C64.4,283.2,63.8,283.8,63.1,283.8"/>
	<path class="st3" d="M61.1,286.1c-0.7,0-1.3-0.5-1.3-1.2c0-0.7,0.6-1.2,1.3-1.2c0.7,0,1.3,0.5,1.3,1.2
		C62.4,285.5,61.8,286.1,61.1,286.1"/>
	<path class="st3" d="M58.9,288.2c-0.7,0-1.3-0.5-1.3-1.2c0-0.7,0.6-1.2,1.3-1.2c0.7,0,1.3,0.5,1.3,1.2
		C60.3,287.7,59.7,288.2,58.9,288.2"/>
	<path class="st3" d="M94.3,280c5.1,0.2,6.4-2.2,8.6-2.1c2.2,0.1,3.2,1.6,3.2,1.6v16.9c0,0-1.9-0.9-3.6-0.8
		c-1.7,0.1-5.3,1.6-8.1,1.6"/>
	<path class="st7" d="M104.2,286c-0.1-0.2-0.9-0.6-1-0.6c-0.2,0-0.4,0-0.7,0.2c-0.2,0.2-0.4,0.4-0.4,0.4s-0.2,0-0.4-0.1
		c-0.2,0-1-0.3-1.1-0.3c-0.1,0-0.2,0-0.4,0.1c-0.2,0.1-0.8,0.5-1,0.6c-0.2,0.1-0.3,0.2-0.6,0c-0.3-0.2-1-1-1-1l-1.8,1.1l0.1,0.4
		l1.6-1.1c0,0,0.6,0.6,0.8,0.8c0.2,0.1,0.7,0.2,1.2-0.1c0.5-0.3,0.6-0.6,1.1-0.5c0.5,0.1,1.3,0.3,1.3,0.3s0.6-0.6,0.8-0.6
		c0.2,0,0.7,0.3,0.9,0.4l0.2,0.1L104.2,286z"/>
	<path class="st7" d="M104.4,289.8c0,0-0.8-0.7-1-0.7c-0.3,0-0.5,0-0.6,0.1c-0.2,0.1-0.4,0.5-0.4,0.5l-1.7-0.5c0,0-0.3,0.5-0.7,0.8
		c-0.5,0.2-0.9,0.2-1.3-0.2c-0.4-0.4-0.8-0.8-0.8-0.8l-1.8,1.2l0.2,0.4l1.7-1.1c0,0,0.7,0.8,1,0.9c0.3,0.1,0.7,0.3,1.3,0.1
		c0.5-0.3,0.8-0.7,0.8-0.7l1.6,0.4c0,0,0.3-0.4,0.5-0.5c0.2-0.1,0.4-0.2,0.6-0.1c0.2,0.1,0.8,0.6,0.8,0.6L104.4,289.8z"/>
	<path class="st3" d="M92.1,297.4c-2.8,0-6.4-1.5-8.1-1.6c-1.7-0.1-3.6,0.8-3.6,0.8v-16.9c0,0,1-1.5,3.2-1.6
		c2.2-0.1,3.5,2.3,8.6,2.1"/>
	<path class="st7" d="M82.5,286.3l0.2-0.1c0.2-0.1,0.7-0.4,0.9-0.4c0.2,0,0.8,0.6,0.8,0.6s0.9-0.2,1.3-0.3c0.5-0.1,0.6,0.3,1.1,0.5
		c0.5,0.3,1,0.2,1.2,0.1c0.2-0.2,0.8-0.8,0.8-0.8l1.6,1.1l0.1-0.4l-1.8-1.1c0,0-0.7,0.8-1,1c-0.3,0.2-0.4,0.1-0.6,0
		c-0.2-0.1-0.8-0.5-1-0.6c-0.2-0.1-0.3-0.1-0.4-0.1c-0.1,0-0.9,0.2-1.1,0.3c-0.2,0-0.4,0.1-0.4,0.1s-0.2-0.2-0.4-0.4
		c-0.2-0.2-0.5-0.2-0.7-0.2c-0.2,0-0.9,0.5-1,0.6L82.5,286.3z"/>
	<path class="st7" d="M82.1,290.1c0,0,0.6-0.5,0.8-0.6c0.2-0.1,0.4,0,0.6,0.1c0.2,0.1,0.5,0.5,0.5,0.5l1.6-0.4c0,0,0.3,0.5,0.8,0.7
		c0.5,0.3,1,0.1,1.3-0.1c0.3-0.1,1-0.9,1-0.9l1.7,1.1l0.2-0.4l-1.8-1.2c0,0-0.4,0.4-0.8,0.8c-0.4,0.4-0.9,0.4-1.3,0.2
		c-0.4-0.2-0.7-0.8-0.7-0.8l-1.7,0.5c0,0-0.3-0.3-0.4-0.5c-0.2-0.1-0.4-0.2-0.6-0.1c-0.3,0-1,0.7-1,0.7L82.1,290.1z"/>
</g>
<g>
	<path class="st8" d="M137.6,354.7v-20.1h2.9l6.4,10.2c1.5,2.4,2.7,4.5,3.6,6.5l0.1,0c-0.2-2.7-0.3-5.1-0.3-8.3v-8.4h2.4v20.1h-2.6
		l-6.4-10.2c-1.4-2.2-2.7-4.5-3.7-6.7l-0.1,0c0.1,2.5,0.2,5,0.2,8.3v8.6H137.6z"/>
	<path class="st8" d="M158.6,347.9c0.1,3.6,2.3,5,5,5c1.9,0,3-0.3,4-0.7l0.5,1.9c-0.9,0.4-2.5,0.9-4.8,0.9c-4.5,0-7.1-3-7.1-7.3
		c0-4.4,2.6-7.8,6.8-7.8c4.7,0,6,4.1,6,6.8c0,0.5,0,0.9-0.1,1.2H158.6z M166.3,346.1c0-1.6-0.7-4.2-3.6-4.2c-2.7,0-3.8,2.4-4,4.2
		H166.3z"/>
	<path class="st8" d="M173.2,340.2l1.9,7.3c0.4,1.6,0.8,3.1,1,4.6h0.1c0.3-1.5,0.8-3,1.3-4.6l2.4-7.4h2.2l2.2,7.2
		c0.5,1.7,1,3.3,1.3,4.7h0.1c0.2-1.5,0.6-3,1.1-4.7l2.1-7.3h2.6l-4.7,14.5h-2.4l-2.2-6.9c-0.5-1.6-0.9-3-1.3-4.7h-0.1
		c-0.4,1.7-0.8,3.2-1.3,4.8l-2.3,6.9h-2.4l-4.4-14.5H173.2z"/>
	<path class="st8" d="M204.2,351.2c0,1.3,0.1,2.5,0.2,3.5H202l-0.2-1.8h-0.1c-0.8,1.1-2.4,2.1-4.4,2.1c-2.9,0-4.4-2.1-4.4-4.2
		c0-3.5,3.1-5.4,8.7-5.4v-0.3c0-1.2-0.3-3.3-3.3-3.3c-1.4,0-2.8,0.4-3.8,1.1l-0.6-1.8c1.2-0.7,3-1.3,4.8-1.3c4.4,0,5.5,3,5.5,5.9
		V351.2z M201.6,347.3c-2.9-0.1-6.1,0.4-6.1,3.3c0,1.7,1.1,2.5,2.4,2.5c1.9,0,3.1-1.2,3.6-2.4c0.1-0.3,0.1-0.6,0.1-0.8V347.3z"/>
	<path class="st8" d="M208.4,344.7c0-1.7,0-3.2-0.1-4.5h2.3l0.1,2.9h0.1c0.7-1.9,2.3-3.2,4-3.2c0.3,0,0.5,0,0.7,0.1v2.5
		c-0.3-0.1-0.5-0.1-0.9-0.1c-1.9,0-3.2,1.4-3.5,3.3c-0.1,0.4-0.1,0.8-0.1,1.2v7.7h-2.6V344.7z"/>
	<path class="st8" d="M220.9,346.9L220.9,346.9c0.4-0.5,0.9-1.1,1.3-1.6l4.3-5h3.1l-5.6,5.9l6.4,8.5h-3.2l-5-6.9l-1.3,1.5v5.4h-2.6
		v-21.2h2.6V346.9z"/>
	<path class="st8" d="M231,358.4c0.7-1.8,1.5-5,1.8-7.2l2.9-0.3c-0.7,2.5-2,5.9-2.9,7.3L231,358.4z"/>
	<path class="st8" d="M245.3,354.7v-20.1h2.9l6.4,10.2c1.5,2.4,2.7,4.5,3.6,6.5l0.1,0c-0.2-2.7-0.3-5.1-0.3-8.3v-8.4h2.4v20.1h-2.6
		l-6.4-10.2c-1.4-2.2-2.7-4.5-3.7-6.7l-0.1,0c0.1,2.5,0.2,5,0.2,8.3v8.6H245.3z"/>
	<path class="st8" d="M277,350.7c0,1.5,0,2.8,0.1,4h-2.3l-0.1-2.4h-0.1c-0.7,1.2-2.2,2.7-4.8,2.7c-2.3,0-5-1.3-5-6.3v-8.5h2.6v8
		c0,2.7,0.9,4.6,3.2,4.6c1.8,0,3-1.2,3.5-2.4c0.2-0.4,0.2-0.8,0.2-1.3v-8.8h2.6V350.7z"/>
	<path class="st8" d="M282.8,347.9c0.1,3.6,2.3,5,5,5c1.9,0,3-0.3,4-0.7l0.5,1.9c-0.9,0.4-2.5,0.9-4.8,0.9c-4.5,0-7.1-3-7.1-7.3
		c0-4.4,2.6-7.8,6.8-7.8c4.7,0,6,4.1,6,6.8c0,0.5,0,0.9-0.1,1.2H282.8z M290.5,346.1c0-1.6-0.7-4.2-3.6-4.2c-2.7,0-3.8,2.4-4,4.2
		H290.5z"/>
	<path class="st8" d="M297.3,340.2l2.8,8.1c0.5,1.3,0.9,2.5,1.2,3.7h0.1c0.3-1.2,0.7-2.4,1.2-3.7l2.8-8.1h2.7l-5.7,14.5H300
		l-5.5-14.5H297.3z"/>
	<path class="st8" d="M320.8,351.2c0,1.3,0.1,2.5,0.2,3.5h-2.4l-0.2-1.8h-0.1c-0.8,1.1-2.4,2.1-4.4,2.1c-2.9,0-4.4-2.1-4.4-4.2
		c0-3.5,3.1-5.4,8.7-5.4v-0.3c0-1.2-0.3-3.3-3.3-3.3c-1.4,0-2.8,0.4-3.8,1.1l-0.6-1.8c1.2-0.7,3-1.3,4.8-1.3c4.4,0,5.5,3,5.5,5.9
		V351.2z M318.2,347.3c-2.9-0.1-6.1,0.4-6.1,3.3c0,1.7,1.1,2.5,2.4,2.5c1.9,0,3.1-1.2,3.6-2.4c0.1-0.3,0.1-0.6,0.1-0.8V347.3z"/>
	<path class="st8" d="M335.5,334.6h2.6V348c0,5.3-2.6,7-6.1,7c-1,0-2.2-0.2-2.8-0.5l0.4-2.1c0.5,0.2,1.3,0.4,2.2,0.4
		c2.3,0,3.7-1,3.7-5V334.6z"/>
	<path class="st8" d="M343.9,347.9c0.1,3.6,2.3,5,5,5c1.9,0,3-0.3,4-0.7l0.5,1.9c-0.9,0.4-2.5,0.9-4.8,0.9c-4.5,0-7.1-3-7.1-7.3
		c0-4.4,2.6-7.8,6.8-7.8c4.7,0,6,4.1,6,6.8c0,0.5,0,0.9-0.1,1.2H343.9z M351.6,346.1c0-1.6-0.7-4.2-3.6-4.2c-2.7,0-3.8,2.4-4,4.2
		H351.6z"/>
	<path class="st8" d="M357.4,344.7c0-1.7,0-3.2-0.1-4.5h2.3l0.1,2.9h0.1c0.7-1.9,2.3-3.2,4-3.2c0.3,0,0.5,0,0.7,0.1v2.5
		c-0.3-0.1-0.5-0.1-0.9-0.1c-1.9,0-3.2,1.4-3.5,3.3c-0.1,0.4-0.1,0.8-0.1,1.2v7.7h-2.6V344.7z"/>
	<path class="st8" d="M366.8,352c0.8,0.5,2.2,1,3.5,1c1.9,0,2.8-0.9,2.8-2.2c0-1.3-0.7-1.9-2.7-2.6c-2.6-1-3.9-2.4-3.9-4.1
		c0-2.3,1.9-4.2,5-4.2c1.5,0,2.7,0.4,3.5,0.9l-0.6,1.9c-0.6-0.4-1.6-0.9-3-0.9c-1.6,0-2.4,0.9-2.4,2c0,1.2,0.8,1.7,2.7,2.5
		c2.5,0.9,3.8,2.2,3.8,4.3c0,2.6-2,4.4-5.4,4.4c-1.6,0-3-0.4-4.1-1L366.8,352z"/>
	<path class="st8" d="M380.4,347.9c0.1,3.6,2.3,5,5,5c1.9,0,3-0.3,4-0.7l0.5,1.9c-0.9,0.4-2.5,0.9-4.8,0.9c-4.5,0-7.1-3-7.1-7.3
		c0-4.4,2.6-7.8,6.8-7.8c4.7,0,6,4.1,6,6.8c0,0.5,0,0.9-0.1,1.2H380.4z M388.1,346.1c0-1.6-0.7-4.2-3.6-4.2c-2.7,0-3.8,2.4-4,4.2
		H388.1z"/>
	<path class="st8" d="M394.9,340.2l3.1,8.5c0.4,1,0.7,2.1,1,3h0.1c0.3-0.9,0.6-2,0.9-3l2.9-8.5h2.8l-3.9,10.3c-1.9,5-3.2,7.5-5,9.1
		c-1.3,1.1-2.6,1.6-3.2,1.7l-0.7-2.2c0.7-0.2,1.5-0.6,2.3-1.3c0.7-0.6,1.6-1.6,2.2-2.9c0.1-0.3,0.2-0.5,0.2-0.6
		c0-0.1-0.1-0.4-0.2-0.7l-5.3-13.3H394.9z"/>
</g>
</svg>
